<?xml version="1.0" encoding="UTF-8"?>
<svg width="212px" height="51px" viewBox="0 0 212 51" version="1.1" xmlns="http://www.w3.org/2000/svg" xmlns:xlink="http://www.w3.org/1999/xlink">
    <!-- Generator: Sketch 50.2 (55047) - http://www.bohemiancoding.com/sketch -->
    <title>Asset/Logo</title>
    <desc>Created with Sketch.</desc>
    <defs>
        <polygon id="path-1" points="0.287639506 0.863395489 211.66996 0.863395489 211.66996 50.5142857 0.287639506 50.5142857"></polygon>
    </defs>
    <g id="Symbols" stroke="none" stroke-width="1" fill="none" fill-rule="evenodd">
        <g id="Desktop-/-Action-/-Menu-" transform="translate(-143.000000, -56.000000)">
            <g id="Top-Nav">
                <g id="Group-2">
                    <g id="Logo-/-full" transform="translate(143.000000, 56.000000)">
                        <g id="Logo">
                            <g id="Group-3">
                                <mask id="mask-2" fill="white">
                                    <use xlink:href="#path-1"></use>
                                </mask>
                                <g id="Clip-2"></g>
                                <path d="M23.1757877,34.2945474 L27.6683556,13.6847188 L28.138158,13.6847188 L28.138158,34.2506797 L36.8654914,34.2506797 L36.8654914,2.74438797 L24.1598864,2.74438797 L18.8546519,24.1863729 L18.4267259,24.1863729 L13.1214914,2.74438797 L0.287639506,2.74438797 L0.287639506,34.2506797 L9.01497284,34.2506797 L9.01497284,13.6847188 L9.44289877,13.6847188 L13.6776642,34.2945474 L23.1757877,34.2945474 Z M38.9946519,10.0530075 L38.9946519,27.3807368 C38.9946519,32.8509023 42.0738864,34.7757624 46.1385284,34.7757624 C48.577837,34.7757624 51.2723309,33.725597 53.5833926,32.0626135 L53.7967012,32.0626135 L54.4379358,34.2506797 L61.9246765,34.2506797 L61.9246765,10.0530075 L53.1554667,10.0530075 L53.1554667,26.4621744 C51.9999358,27.2491338 50.5028494,27.9496872 49.4755654,27.9496872 C48.1917877,27.9496872 47.7638617,27.2930015 47.7638617,25.8932241 L47.7638617,10.0530075 L38.9946519,10.0530075 Z M63.7960346,34.2506797 L72.5665531,34.2506797 L72.5665531,0.863395489 L63.7960346,0.863395489 L63.7960346,34.2506797 Z M85.7118617,16.5281414 L92.2145037,16.5281414 L92.2145037,10.0530075 L85.7118617,10.0530075 L85.7118617,4.62670977 L81.9037136,4.62670977 L74.3737877,11.2773143 L74.3737877,16.5281414 L76.9413432,16.5281414 L76.9413432,27.9935549 C76.9413432,33.725597 80.663121,34.7318947 83.7868494,34.7318947 C85.8819852,34.7318947 89.0907753,34.4261504 91.2735901,33.988803 L91.2735901,27.5562075 C90.3745531,27.7303489 89.3904543,27.9496872 88.4495407,27.9496872 C86.9524543,27.9496872 85.7118617,27.4246045 85.7118617,25.5422827 L85.7118617,16.5281414 Z M93.8921827,34.252009 L102.662701,34.252009 L102.662701,10.0530075 L93.8921827,10.0530075 L93.8921827,34.252009 Z M93.7652444,7.68947068 L102.749072,7.68947068 L102.749072,1.21300752 L93.7652444,1.21300752 L93.7652444,7.68947068 Z M115.048998,9.52659549 C108.331738,9.52659549 104.267096,11.934 104.267096,18.1472571 C104.267096,26.8117865 115.219121,23.8367609 115.219121,26.6801835 C115.219121,27.7303489 114.662948,28.3870346 112.566504,28.3870346 C110.513244,28.3870346 106.919714,27.9935549 104.780084,27.6000752 L104.52359,34.206812 C106.834652,34.5577534 110.769738,34.7757624 112.99443,34.7757624 C120.011368,34.7757624 124.117886,32.2819519 124.117886,26.4621744 C124.117886,17.1409594 113.037615,20.4230586 113.037615,17.4480331 C113.037615,16.4842737 113.850281,16.0469263 116.031788,16.0469263 C117.958109,16.0469263 120.824035,16.4417353 122.407491,16.7474797 L122.663985,10.2271489 C120.48117,9.7898015 117.401936,9.52659549 115.048998,9.52659549 Z M135.134035,16.5281414 L141.636677,16.5281414 L141.636677,10.0530075 L135.134035,10.0530075 L135.134035,4.62670977 L131.327195,4.62670977 L123.797269,11.2773143 L123.797269,16.5281414 L126.363516,16.5281414 L126.363516,27.9935549 C126.363516,33.725597 130.086602,34.7318947 133.209022,34.7318947 C135.305467,34.7318947 138.514257,34.4261504 140.695763,33.988803 L140.695763,27.5562075 C139.798035,27.7303489 138.813936,27.9496872 137.873022,27.9496872 C136.374627,27.9496872 135.134035,27.4246045 135.134035,25.5422827 L135.134035,16.5281414 Z M164.834973,26.8117865 C162.182356,27.5123398 158.973565,28.0812902 157.091738,28.0812902 C153.626454,28.0812902 151.486825,27.1175308 151.358578,24.0547699 L165.177837,24.0547699 L165.177837,20.860406 C165.177837,14.7348842 162.866775,9.52659549 154.354059,9.52659549 C146.995565,9.52659549 142.161442,13.5092481 142.161442,22.1737774 C142.161442,30.7944391 146.56764,34.7757624 154.7388,34.7757624 C158.032652,34.7757624 161.326504,34.206812 164.834973,33.244382 L164.834973,26.8117865 Z M151.273516,18.8916782 C151.273516,17.0970917 152.257615,15.3902406 154.225812,15.3902406 C156.407319,15.3902406 156.963491,17.1848271 156.963491,18.8916782 L151.273516,18.8916782 Z M175.594627,50.5149504 L175.594627,34.1629444 C176.83522,34.4261504 178.118998,34.6441594 179.35959,34.6441594 C185.77717,34.6441594 190.568109,31.3195218 190.568109,21.5170917 C190.568109,13.8588602 187.231072,9.57046316 182.353763,9.57046316 C179.787516,9.57046316 177.434578,10.5780902 175.38001,12.1533383 L175.38001,10.0530075 L166.824109,10.0530075 L166.824109,50.5149504 L175.594627,50.5149504 Z M181.626158,21.9105714 C181.626158,26.6363158 180.643368,28.3431669 177.776133,28.3431669 C177.091714,28.3431669 176.407294,28.2554316 175.594627,27.9935549 L175.594627,17.7537774 C176.706973,16.7913474 177.990751,16.222397 178.931664,16.222397 C180.685244,16.222397 181.626158,17.7537774 181.626158,21.9105714 Z M202.599763,9.52659549 C195.883812,9.52659549 191.81917,11.934 191.81917,18.1472571 C191.81917,26.8117865 202.771195,23.8367609 202.771195,26.6801835 C202.771195,27.7303489 202.215022,28.3870346 200.118578,28.3870346 C198.065319,28.3870346 194.471788,27.9935549 192.332158,27.6000752 L192.075664,34.206812 C194.386726,34.5577534 198.321812,34.7757624 200.546504,34.7757624 C207.563442,34.7757624 211.66996,32.2819519 211.66996,26.4621744 C211.66996,17.1409594 200.589689,20.4230586 200.589689,17.4480331 C200.589689,16.4842737 201.402356,16.0469263 203.583862,16.0469263 C205.508874,16.0469263 208.376109,16.4417353 209.958257,16.7474797 L210.216059,10.2271489 C208.033244,9.7898015 204.952701,9.52659549 202.599763,9.52659549 Z" id="Fill-1" fill="#164997" mask="url(#mask-2)"></path>
                            </g>
                            <path d="M0,50.3939902 L2.11998243,50.3939902 L2.11998243,43.2060098 L0,43.2060098 L0,50.3939902 Z M18.7267311,50.3939902 L20.9284033,50.3939902 L20.9284033,43.2060098 L18.8584888,43.2060098 L18.8584888,47.2494913 L16.5237413,43.2060098 L14.2825417,43.2060098 L14.2825417,50.3939902 L16.3722198,50.3939902 L16.3722198,46.4902067 L18.7267311,50.3939902 Z M36.1200736,50.3939902 C38.121474,50.3939902 39.5246942,49.2169051 39.5246942,46.8097013 C39.5246942,44.3934429 38.121474,43.2060098 36.1200736,43.2060098 L33.0909626,43.2060098 L33.0909626,50.3939902 L36.1200736,50.3939902 Z M37.3638669,46.8097013 C37.3638669,47.9790254 36.9699112,48.7577125 35.8776393,48.7577125 L35.210945,48.7577125 L35.210945,44.8526355 L35.8776393,44.8526355 C36.9699112,44.8526355 37.3638669,45.6416706 37.3638669,46.8097013 Z M57.6861845,47.5689858 L57.6861845,43.2060098 L55.5662021,43.2060098 L55.5662021,47.6789334 C55.5662021,48.4576205 55.1419421,48.86766 54.4844708,48.86766 C53.8269996,48.86766 53.4027396,48.4576205 53.4027396,47.6789334 L53.4027396,43.2060098 L51.2827571,43.2060098 L51.2827571,47.5793338 C51.2827571,49.5066491 52.43432,50.5142857 54.4844708,50.5142857 C56.5253986,50.5142857 57.6861845,49.5066491 57.6861845,47.5689858 Z M71.8778133,48.8974105 C71.2414233,48.8974105 70.2018546,48.7473645 69.5957688,48.6180145 L69.5957688,50.2736947 C70.303308,50.4043382 71.1913554,50.5142857 72.050416,50.5142857 C73.6460025,50.5142857 75.070304,49.9645481 75.070304,48.0889729 C75.070304,45.151434 71.6050747,46.4203577 71.6050747,45.3312306 C71.6050747,44.8526355 72.050416,44.7129375 72.686806,44.7129375 C73.3337366,44.7129375 74.1308711,44.812537 74.6658076,44.9017885 L74.6658076,43.2357603 C74.0307352,43.1762593 73.3337366,43.0857143 72.6064338,43.0857143 C71.0595976,43.0857143 69.4745517,43.5151563 69.4745517,45.3816771 C69.4745517,48.3683689 72.9094766,47.1498918 72.9094766,48.2286709 C72.9094766,48.6878635 72.5655888,48.8974105 71.8778133,48.8974105 Z M92.6454722,43.2060098 L86.303971,43.2060098 L86.303971,44.8526355 L88.4147304,44.8526355 L88.4147304,50.3939902 L90.5347128,50.3939902 L90.5347128,44.8733315 L92.6454722,44.8733315 L92.6454722,43.2060098 Z M104.32448,43.2060098 L104.32448,50.3939902 L106.444463,50.3939902 L106.444463,48.2467799 L107.292983,48.2467799 L108.182348,50.3939902 L110.505237,50.3939902 L109.303606,47.7578369 C110.070437,47.1796423 110.272026,46.3104102 110.272026,45.8020646 C110.272026,43.8644014 109.050631,43.2060098 106.899027,43.2060098 L104.32448,43.2060098 Z M106.444463,44.8319395 L107.212611,44.8319395 C107.879305,44.8319395 108.112516,45.3312306 108.112516,45.7516181 C108.112516,46.1914082 107.939913,46.7204497 107.212611,46.7204497 L106.444463,46.7204497 L106.444463,44.8319395 Z M122.172387,50.3939902 L124.29237,50.3939902 L124.29237,43.2060098 L122.172387,43.2060098 L122.172387,50.3939902 Z M136.454929,43.2060098 L136.454929,50.3939902 L141.787166,50.3939902 L141.787166,48.7577125 L138.574911,48.7577125 L138.574911,47.5780403 L141.111248,47.5780403 L141.111248,45.9818611 L138.574911,45.9818611 L138.574911,44.8526355 L141.828011,44.8526355 L141.828011,43.2060098 L136.454929,43.2060098 Z M155.807509,48.8974105 C155.171119,48.8974105 154.131551,48.7473645 153.525465,48.6180145 L153.525465,50.2736947 C154.233004,50.4043382 155.121051,50.5142857 155.980112,50.5142857 C157.575699,50.5142857 159,49.9645481 159,48.0889729 C159,45.151434 155.534771,46.4203577 155.534771,45.3312306 C155.534771,44.8526355 155.980112,44.7129375 156.616502,44.7129375 C157.263433,44.7129375 158.060567,44.812537 158.595504,44.9017885 L158.595504,43.2357603 C157.960431,43.1762593 157.263433,43.0857143 156.53613,43.0857143 C154.989294,43.0857143 153.405565,43.5151563 153.405565,45.3816771 C153.405565,48.3683689 156.839173,47.1498918 156.839173,48.2286709 C156.839173,48.6878635 156.495285,48.8974105 155.807509,48.8974105 Z" id="Fill-4" fill="#986A4C"></path>
                            <path d="M17.6666667,19.3142857 C20.9186874,19.3142857 23.5555556,16.3212127 23.5555556,12.6279133 C23.5555556,8.93593014 20.9186874,5.94285714 17.6666667,5.94285714 C14.414646,5.94285714 11.7777778,8.93593014 11.7777778,12.6279133 C11.7777778,16.3212127 14.414646,19.3142857 17.6666667,19.3142857" id="Fill-6" fill="#FEFEFE"></path>
                            <path d="M20.6111111,13.8609186 L20.6111111,9.45132056 C20.2512346,9.21113296 19.8597325,9.03006846 19.4453292,8.91428571 L19.4453292,11.5797522 L19.4453292,12.928498 L19.4453292,13.2536751 C19.4442387,13.2524433 19.4442387,13.2524433 19.4442387,13.2512116 L19.4442387,13.8424426 L19.4420576,13.8424426 C19.4278807,14.4878698 18.9687654,15.005197 18.4027778,15.005197 C17.8367901,15.005197 17.3776749,14.4878698 17.3634979,13.8424426 L17.2522634,13.8424426 C17.2522634,13.8436743 17.2522634,13.8436743 17.2522634,13.8436743 L16.1944444,13.8436743 C16.2097119,15.2269086 17.1911934,16.3428571 18.4016872,16.3428571 C19.6078189,16.3428571 20.5871193,15.2355307 20.6100206,13.8596869 L20.6111111,13.8609186 Z" id="Fill-7" fill="#D51F26"></path>
                            <path d="M16.9471981,8.91428571 C14.0923671,8.91428571 11.7777778,11.2420377 11.7777778,14.1142857 C11.7777778,16.9852645 14.0923671,19.3142857 16.9471981,19.3142857 C18.3797343,19.3142857 19.6752899,18.7279054 20.6111111,17.7810663 L19.6612077,16.8253426 C18.9686232,17.527222 18.0084783,17.9625649 16.9471981,17.9625649 C14.8348792,17.9625649 13.1219807,16.2389623 13.1219807,14.1142857 C13.1219807,11.9883399 14.8348792,10.2660065 16.9471981,10.2660065 L16.9471981,8.91428571 Z" id="Fill-8" fill="#D51F26"></path>
                        </g>
                    </g>
                </g>
            </g>
        </g>
    </g>
</svg>